HIERARCHY
ROOT hip
{
  OFFSET -7.61452 84.4257 37.5314
  CHANNELS 6 Xposition Yposition Zposition Zrotation Xrotation Yrotation
  JOINT abdomen
  {
    OFFSET 0 20.6881 -0.73152
    CHANNELS 3 Zrotation Xrotation Yrotation
    JOINT chest
    {
      OFFSET 0 11.7043 -0.48768
      CHANNELS 3 Zrotation Xrotation Yrotation
      JOINT neck
      {
        OFFSET 0 22.1894 -2.19456
        CHANNELS 3 Zrotation Xrotation Yrotation
        JOINT head
        {
          OFFSET -0.24384 7.07133 1.2192
          CHANNELS 3 Zrotation Xrotation Yrotation
          JOINT leftEye
          {
            OFFSET 4.14528 8.04674 8.04672
            CHANNELS 3 Zrotation Xrotation Yrotation
            End Site
            {
              OFFSET 1 0 0
            }
          }
          JOINT rightEye
          {
            OFFSET -3.6576 8.04674 8.04672
            CHANNELS 3 Zrotation Xrotation Yrotation
            End Site
            {
              OFFSET 1 0 0
            }
          }
        }
      }
      JOINT rCollar
      {
        OFFSET -2.68224 19.2634 -4.8768
        CHANNELS 3 Zrotation Xrotation Yrotation
        JOINT rShldr
        {
          OFFSET -8.77824 -1.95073 1.46304
          CHANNELS 3 Zrotation Xrotation Yrotation
          JOINT rForeArm
          {
            OFFSET -28.1742 -1.7115 0.48768
            CHANNELS 3 Zrotation Xrotation Yrotation
            JOINT rHand
            {
              OFFSET -22.5879 0.773209 7.07136
              CHANNELS 3 Zrotation Xrotation Yrotation
              JOINT rThumb1
              {
                OFFSET -1.2192 -0.487915 3.41376
                CHANNELS 3 Zrotation Xrotation Yrotation
                JOINT rThumb2
                {
                  OFFSET -3.37035 -0.52449 3.41376
                  CHANNELS 3 Zrotation Xrotation Yrotation
                  End Site
                  {
                    OFFSET -1.78271 -1.18214 1.43049
                  }
                }
              }
              JOINT rIndex1
              {
                OFFSET -7.75947 0.938293 5.60832
                CHANNELS 3 Zrotation Xrotation Yrotation
                JOINT rIndex2
                {
                  OFFSET -2.54057 -0.884171 1.56538
                  CHANNELS 3 Zrotation Xrotation Yrotation
                  End Site
                  {
                    OFFSET -1.62519 -0.234802 1.16502
                  }
                }
              }
              JOINT rMid1
              {
                OFFSET -8.24714 1.18213 3.41376
                CHANNELS 3 Zrotation Xrotation Yrotation
                JOINT rMid2
                {
                  OFFSET -3.10165 -0.590103 1.0647
                  CHANNELS 3 Zrotation Xrotation Yrotation
                  End Site
                  {
                    OFFSET -2.48547 -0.328903 0.83742
                  }
                }
              }
              JOINT rRing1
              {
                OFFSET -8.82822 0.546677 1.51678
                CHANNELS 3 Zrotation Xrotation Yrotation
                JOINT rRing2
                {
                  OFFSET -2.60934 -0.819778 -0.0198488
                  CHANNELS 3 Zrotation Xrotation Yrotation
                  End Site
                  {
                    OFFSET -2.33842 -0.294052 0.168128
                  }
                }
              }
              JOINT rPinky1
              {
                OFFSET -8.27202 -0.0477905 -0.4584
                CHANNELS 3 Zrotation Xrotation Yrotation
                JOINT rPinky2
                {
                  OFFSET -1.82734 -0.647385 -0.700984
                  CHANNELS 3 Zrotation Xrotation Yrotation
                  End Site
                  {
                    OFFSET -1.69225 -0.51767 -0.607171
                  }
                }
              }
            }
          }
        }
      }
      JOINT lCollar
      {
        OFFSET 2.68224 19.2634 -4.8768
        CHANNELS 3 Zrotation Xrotation Yrotation
        JOINT lShldr
        {
          OFFSET 8.77824 -1.95073 1.46304
          CHANNELS 3 Zrotation Xrotation Yrotation
          JOINT lForeArm
          {
            OFFSET 28.1742 -1.7115 0.48768
            CHANNELS 3 Zrotation Xrotation Yrotation
            JOINT lHand
            {
              OFFSET 22.5879 0.773209 7.07136
              CHANNELS 3 Zrotation Xrotation Yrotation
              JOINT lThumb1
              {
                OFFSET 1.2192 -0.487915 3.41376
                CHANNELS 3 Zrotation Xrotation Yrotation
                JOINT lThumb2
                {
                  OFFSET 3.37035 -0.52449 3.41376
                  CHANNELS 3 Zrotation Xrotation Yrotation
                  End Site
                  {
                    OFFSET 1.78271 -1.18214 1.43049
                  }
                }
              }
              JOINT lIndex1
              {
                OFFSET 7.75947 0.938293 5.60832
                CHANNELS 3 Zrotation Xrotation Yrotation
                JOINT lIndex2
                {
                  OFFSET 2.54057 -0.884171 1.56538
                  CHANNELS 3 Zrotation Xrotation Yrotation
                  End Site
                  {
                    OFFSET 1.62519 -0.234802 1.16502
                  }
                }
              }
              JOINT lMid1
              {
                OFFSET 8.24714 1.18213 3.41376
                CHANNELS 3 Zrotation Xrotation Yrotation
                JOINT lMid2
                {
                  OFFSET 3.10165 -0.590103 1.0647
                  CHANNELS 3 Zrotation Xrotation Yrotation
                  End Site
                  {
                    OFFSET 2.48547 -0.328903 0.83742
                  }
                }
              }
              JOINT lRing1
              {
                OFFSET 8.82822 0.546677 1.51678
                CHANNELS 3 Zrotation Xrotation Yrotation
                JOINT lRing2
                {
                  OFFSET 2.60934 -0.819778 -0.0198488
                  CHANNELS 3 Zrotation Xrotation Yrotation
                  End Site
                  {
                    OFFSET 2.33842 -0.294052 0.168128
                  }
                }
              }
              JOINT lPinky1
              {
                OFFSET 8.27202 -0.0477905 -0.4584
                CHANNELS 3 Zrotation Xrotation Yrotation
                JOINT lPinky2
                {
                  OFFSET 1.82734 -0.647385 -0.700984
                  CHANNELS 3 Zrotation Xrotation Yrotation
                  End Site
                  {
                    OFFSET 1.69225 -0.51767 -0.607171
                  }
                }
              }
            }
          }
        }
      }
    }
  }
  JOINT rButtock
  {
    OFFSET -8.77824 4.35084 1.2192
    CHANNELS 3 Zrotation Xrotation Yrotation
    JOINT rThigh
    {
      OFFSET 0 -1.70687 -2.19456
      CHANNELS 3 Zrotation Xrotation Yrotation
      JOINT rShin
      {
        OFFSET 0 -36.8199 0.73152
        CHANNELS 3 Zrotation Xrotation Yrotation
        JOINT rFoot
        {
          OFFSET 0.73152 -45.1104 -5.12064
          CHANNELS 3 Zrotation Xrotation Yrotation
          End Site
          {
            OFFSET -1.1221 -3.69964 12.103
          }
        }
      }
    }
  }
  JOINT lButtock
  {
    OFFSET 8.77824 4.35084 1.2192
    CHANNELS 3 Zrotation Xrotation Yrotation
    JOINT lThigh
    {
      OFFSET 0 -1.70687 -2.19456
      CHANNELS 3 Zrotation Xrotation Yrotation
      JOINT lShin
      {
        OFFSET 0 -36.8199 0.73152
        CHANNELS 3 Zrotation Xrotation Yrotation
        JOINT lFoot
        {
          OFFSET -0.73152 -45.1104 -5.12064
          CHANNELS 3 Zrotation Xrotation Yrotation
          End Site
          {
            OFFSET 1.1221 -3.69964 12.103
          }
        }
      }
    }
  }
}
MOTION
Frames:	5
Frame Time:	0.00833333
-5.18892 84.2564 36.9166 0.943685 0.00141506 -0.0174861 -1.24153 -0.00398111 -0.0340793 -0.342498 -0.00249241 -0.059328 -6.99834e-015 -1.59028e-015 -2.48481e-017 -2.14035e-014 3.18055e-015 -6.36732e-017 -0 0 0 -0 0 0 -3.53002e-015 -2.69835e-017 1.49089e-016 -7.39881e-014 -6.1499e-016 3.97569e-016 -1.30835e-012 3.68746e-013 6.36111e-015 -1.49552e-011 -5.10156e-013 -4.45278e-014 -3.52834e-011 -3.10955e-013 -6.67917e-014 -6.09267e-011 -5.37514e-013 -1.27222e-013 -3.52763e-011 -3.08116e-013 -7.31528e-014 7.73091 5.47488 0.417314 -3.52813e-011 -3.09707e-013 -7.31528e-014 2.90554 0.965183 0.102902 -3.52761e-011 -3.10402e-013 -7.23576e-014 10.2786 0.731801 0.0259123 -3.52829e-011 -3.13682e-013 -6.36111e-014 2.22167 -0.733487 -0.20892 -3.52706e-015 -2.83423e-017 -1.49089e-016 -7.87188e-014 -3.23025e-016 -1.39149e-015 -1.30403e-012 -4.10292e-013 2.22639e-014 -1.49484e-011 2.84734e-013 -5.725e-014 -3.5261e-011 -2.78116e-013 -7.95139e-014 -6.08957e-011 -4.83444e-013 -1.22451e-013 -3.52688e-011 -2.74323e-013 -7.31528e-014 -7.73091 5.47488 -0.417314 -3.52605e-011 -2.77603e-013 -8.26944e-014 -2.90554 0.965183 -0.102902 -3.52769e-011 -2.76907e-013 -7.23576e-014 -10.2786 0.731801 -0.0259123 -3.52582e-011 -2.78696e-013 -7.63333e-014 -2.22167 -0.733487 0.20892 -2.03217e-016 0 -3.88251e-019 -0.453612 -1.92099 -0.00953094 -0.00915727 -2.07857 -0.0755669 -0.487694 3.99699 0.136688 2.03217e-016 0 3.88251e-019 -1.43705 -5.97118 0.129651 -0.00126577 5.25801 -0.0454279 0.507584 0.71072 -0.0722459 
-7.2368 84.501 36.7569 -0.137893 0.0452661 -1.08071 -0.349731 0.091589 0.254099 -0.457136 -0.410423 -0.0114379 -0.810917 1.74758 -0.458134 1.91609 -0.167252 -0.766112 -0 0 0 -0 0 0 -8.15776e-014 -6.70413e-015 2.93266e-014 23.3007 6.71784 -3.3978 -6.15932 -3.33574 8.96542 0.0769044 6.15807 0.84751 2.29684e-010 -6.29316e-010 5.93898e-010 4.07327e-010 -1.09313e-009 1.02089e-009 2.29691e-010 -6.29313e-010 5.9389e-010 7.73091 5.47488 0.417314 2.29685e-010 -6.29315e-010 5.93894e-010 2.90554 0.965183 0.102902 2.29692e-010 -6.29316e-010 5.93895e-010 10.2786 0.731801 0.0259123 2.29683e-010 -6.29318e-010 5.93902e-010 2.22167 -0.733487 -0.20892 -8.15819e-014 -6.70444e-015 2.90851e-014 -24.0241 6.55014 2.4959 5.4677 -2.79639 -8.17431 -0.00384971 1.37744 -0.193384 5.14125e-010 5.05321e-010 4.09633e-010 8.89636e-010 8.73116e-010 7.05573e-010 5.14118e-010 5.05325e-010 4.09642e-010 -7.73091 5.47488 -0.417314 5.14127e-010 5.05322e-010 4.09627e-010 -2.90554 0.965183 -0.102902 5.14113e-010 5.05323e-010 4.09638e-010 -10.2786 0.731801 -0.0259123 5.14128e-010 5.05322e-010 4.09631e-010 -2.22167 -0.733487 0.20892 -2.03217e-016 0 -3.88251e-019 -6.39197 -1.94826 -0.00677111 -0.00334144 -2.0794 -0.0241398 -0.443422 4.01426 0.130469 2.03217e-016 0 3.88251e-019 0.557799 -3.56278 -2.15725 -0.0133888 5.27938 -0.077808 -0.22879 -3.51179 6.71906 
-7.23936 84.5008 36.7549 -1.27881 0.09183 -2.20455 0.590774 0.191588 0.558197 -0.577871 -0.840906 0.039037 -1.63684 3.59568 -0.943514 3.93659 -0.343726 -1.57537 -0 0 0 -0 0 0 -1.69308e-013 -1.39276e-014 5.71661e-014 48.821 13.7383 -7.14721 -11.5494 -6.59013 18.5394 -0.0443671 12.6647 1.77679 5.47322e-010 -1.35875e-009 1.2621e-009 9.67878e-010 -2.35968e-009 2.16911e-009 5.4733e-010 -1.35875e-009 1.26209e-009 7.73091 5.47488 0.417314 5.47321e-010 -1.35875e-009 1.26209e-009 2.90554 0.965183 0.102902 5.4733e-010 -1.35875e-009 1.2621e-009 10.2786 0.731801 0.0259123 5.47321e-010 -1.35875e-009 1.2621e-009 2.22167 -0.733487 -0.20892 -1.6932e-013 -1.39267e-014 5.6986e-014 -50.0548 13.425 5.23683 10.3782 -5.55335 -16.8616 0.00221597 2.83981 -0.399074 1.14069e-009 1.0959e-009 8.65301e-010 1.97367e-009 1.89354e-009 1.49034e-009 1.14068e-009 1.0959e-009 8.65313e-010 -7.73091 5.47488 -0.417314 1.14069e-009 1.0959e-009 8.65291e-010 -2.90554 0.965183 -0.102902 1.14068e-009 1.0959e-009 8.65303e-010 -10.2786 0.731801 -0.0259123 1.14069e-009 1.0959e-009 8.65293e-010 -2.22167 -0.733487 0.20892 -2.03217e-016 0 -3.88251e-019 -12.6696 -1.97708 -0.00385401 0.00280637 -2.08028 0.0302086 -0.396609 4.03252 0.123892 2.03217e-016 0 3.88251e-019 2.87506 -1.01888 -4.56572 -0.0261618 5.30106 -0.112012 0.0793787 -7.78894 14.003 
-7.23516 84.4997 36.7528 -2.29617 0.132784 -3.20717 1.43098 0.282702 0.830464 -0.684366 -1.22628 0.0843624 -2.34862 5.24139 -1.37953 5.73486 -0.501397 -2.29841 -0 0 0 -0 0 0 -2.37673e-013 -2.00584e-014 8.76815e-014 72.4061 19.861 -10.771 -15.4419 -9.02881 27.2148 -0.340833 18.4576 2.66505 7.59618e-010 -1.88733e-009 1.78183e-009 1.34383e-009 -3.27831e-009 3.06292e-009 7.59626e-010 -1.88732e-009 1.78182e-009 7.73091 5.47488 0.417314 7.59617e-010 -1.88733e-009 1.78183e-009 2.90554 0.965183 0.102902 7.59627e-010 -1.88733e-009 1.78183e-009 10.2786 0.731801 0.0259123 7.59616e-010 -1.88733e-009 1.78183e-009 2.22167 -0.733487 -0.20892 -2.37692e-013 -2.00566e-014 8.75534e-014 -73.8671 19.4966 7.89407 14.0726 -7.70758 -24.7317 0.0164069 4.13212 -0.581497 1.6129e-009 1.51652e-009 1.22906e-009 2.7907e-009 2.62031e-009 2.11696e-009 1.61289e-009 1.51652e-009 1.22907e-009 -7.73091 5.47488 -0.417314 1.6129e-009 1.51652e-009 1.22905e-009 -2.90554 0.965183 -0.102902 1.61289e-009 1.51652e-009 1.22906e-009 -10.2786 0.731801 -0.0259123 1.6129e-009 1.51652e-009 1.22905e-009 -2.22167 -0.733487 0.20892 -2.03217e-016 0 -3.88251e-019 -18.2687 -2.0028 -0.00125118 0.00829469 -2.08106 0.0787146 -0.354866 4.04881 0.118029 2.03217e-016 0 3.88251e-019 5.12265 1.23792 -6.71872 -0.037562 5.32211 -0.142575 1.28084 -11.2749 20.6805 
-7.22834 84.499 36.7532 -3.00811 0.159891 -3.90675 2.02241 0.351627 1.02315 -0.756687 -1.49889 0.116793 -2.83449 6.38235 -1.68726 6.98697 -0.612395 -2.80584 -0 0 0 -0 0 0 -2.5762e-013 -2.34578e-014 1.24886e-013 89.3464 24.0171 -13.5318 -17.6949 -10.3624 33.3394 -0.662867 22.4819 3.33431 7.08561e-010 -1.91374e-009 1.93039e-009 1.2583e-009 -3.32712e-009 3.32068e-009 7.08569e-010 -1.91374e-009 1.93038e-009 7.73091 5.47488 0.417314 7.08558e-010 -1.91374e-009 1.93039e-009 2.90554 0.965183 0.102902 7.08569e-010 -1.91374e-009 1.93039e-009 10.2786 0.731801 0.0259123 7.08558e-010 -1.91374e-009 1.9304e-009 2.22167 -0.733487 -0.20892 -2.57647e-013 -2.34558e-014 1.24787e-013 -90.851 23.7033 9.96133 16.3255 -8.99329 -30.363 0.030753 4.99944 -0.704432 1.69923e-009 1.51226e-009 1.36304e-009 2.94025e-009 2.61295e-009 2.34823e-009 1.69923e-009 1.51226e-009 1.36306e-009 -7.73091 5.47488 -0.417314 1.69924e-009 1.51226e-009 1.36303e-009 -2.90554 0.965183 -0.102902 1.69923e-009 1.51226e-009 1.36304e-009 -10.2786 0.731801 -0.0259123 1.69924e-009 1.51226e-009 1.36302e-009 -2.22167 -0.733487 0.20892 -2.03217e-016 0 -3.88251e-019 -22.1713 -2.02076 0.000565761 0.0121311 -2.0816 0.112614 -0.325807 4.06018 0.113947 2.03217e-016 0 3.88251e-019 6.79176 2.79952 -8.22973 -0.0455764 5.3416 -0.164033 2.61962 -13.4401 25.4703 
